<svg xmlns="http://www.w3.org/2000/svg" width="192" height="192" viewBox="0 0 192 192">
  <defs>
    <linearGradient id="bg" x1="0" y1="0" x2="192" y2="192" gradientUnits="userSpaceOnUse">
      <stop stop-color="#6366f1"/>
      <stop offset="1" stop-color="#3b82f6"/>
    </linearGradient>
    <linearGradient id="sparkle" x1="132" y1="24" x2="174" y2="84" gradientUnits="userSpaceOnUse">
      <stop stop-color="#fbbf24"/>
      <stop offset="1" stop-color="#f59e0b"/>
    </linearGradient>
  </defs>
  <rect width="192" height="192" rx="42" fill="url(#bg)"/>
  <line x1="36" y1="138" x2="108" y2="138" stroke="white" stroke-opacity="0.15" stroke-width="4.5" stroke-linecap="round"/>
  <line x1="36" y1="150" x2="90" y2="150" stroke="white" stroke-opacity="0.1" stroke-width="4.5" stroke-linecap="round"/>
  <path d="M150 36 L156 54 L174 60 L156 66 L150 84 L144 66 L126 60 L144 54 Z" fill="url(#sparkle)"/>
  <circle cx="168" cy="36" r="4.5" fill="#fbbf24" opacity="0.7"/>
  <g fill="white" transform="scale(3)">
    <path d="M8 24 Q8 18 14 18 L22 18 Q28 18 28 24 L28 26 L23 26 L23 24 Q23 22 22 22 L14 22 Q13 22 13 24 L13 26 L28 38 L28 42 L8 42 L8 38 L22 38 L8 26 Z"/>
    <path d="M32 18 L37 18 L37 27 L47 18 L53 18 L43 27 L54 42 L48 42 L40 30 L37 33 L37 42 L32 42 Z"/>
  </g>
</svg>