<svg xmlns="http://www.w3.org/2000/svg" width="144" height="144" viewBox="0 0 144 144">
  <defs>
    <linearGradient id="bg" x1="0" y1="0" x2="144" y2="144" gradientUnits="userSpaceOnUse">
      <stop stop-color="#6366f1"/>
      <stop offset="1" stop-color="#3b82f6"/>
    </linearGradient>
    <linearGradient id="sparkle" x1="99" y1="18" x2="130.5" y2="63" gradientUnits="userSpaceOnUse">
      <stop stop-color="#fbbf24"/>
      <stop offset="1" stop-color="#f59e0b"/>
    </linearGradient>
  </defs>
  <rect width="144" height="144" rx="31.5" fill="url(#bg)"/>
  <line x1="27" y1="103.5" x2="81" y2="103.5" stroke="white" stroke-opacity="0.15" stroke-width="3.375" stroke-linecap="round"/>
  <line x1="27" y1="112.5" x2="67.5" y2="112.5" stroke="white" stroke-opacity="0.1" stroke-width="3.375" stroke-linecap="round"/>
  <path d="M112.5 27 L117 40.5 L130.5 45 L117 49.5 L112.5 63 L108 49.5 L94.5 45 L108 40.5 Z" fill="url(#sparkle)"/>
  <circle cx="126" cy="27" r="3.375" fill="#fbbf24" opacity="0.7"/>
  <g fill="white" transform="scale(2.25)">
    <path d="M8 24 Q8 18 14 18 L22 18 Q28 18 28 24 L28 26 L23 26 L23 24 Q23 22 22 22 L14 22 Q13 22 13 24 L13 26 L28 38 L28 42 L8 42 L8 38 L22 38 L8 26 Z"/>
    <path d="M32 18 L37 18 L37 27 L47 18 L53 18 L43 27 L54 42 L48 42 L40 30 L37 33 L37 42 L32 42 Z"/>
  </g>
</svg>