<svg xmlns="http://www.w3.org/2000/svg" width="384" height="384" viewBox="0 0 384 384">
  <defs>
    <linearGradient id="bg" x1="0" y1="0" x2="384" y2="384" gradientUnits="userSpaceOnUse">
      <stop stop-color="#6366f1"/>
      <stop offset="1" stop-color="#3b82f6"/>
    </linearGradient>
    <linearGradient id="sparkle" x1="264" y1="48" x2="348" y2="168" gradientUnits="userSpaceOnUse">
      <stop stop-color="#fbbf24"/>
      <stop offset="1" stop-color="#f59e0b"/>
    </linearGradient>
  </defs>
  <rect width="384" height="384" rx="84" fill="url(#bg)"/>
  <line x1="72" y1="276" x2="216" y2="276" stroke="white" stroke-opacity="0.15" stroke-width="9" stroke-linecap="round"/>
  <line x1="72" y1="300" x2="180" y2="300" stroke="white" stroke-opacity="0.1" stroke-width="9" stroke-linecap="round"/>
  <path d="M300 72 L312 108 L348 120 L312 132 L300 168 L288 132 L252 120 L288 108 Z" fill="url(#sparkle)"/>
  <circle cx="336" cy="72" r="9" fill="#fbbf24" opacity="0.7"/>
  <g fill="white" transform="scale(6)">
    <path d="M8 24 Q8 18 14 18 L22 18 Q28 18 28 24 L28 26 L23 26 L23 24 Q23 22 22 22 L14 22 Q13 22 13 24 L13 26 L28 38 L28 42 L8 42 L8 38 L22 38 L8 26 Z"/>
    <path d="M32 18 L37 18 L37 27 L47 18 L53 18 L43 27 L54 42 L48 42 L40 30 L37 33 L37 42 L32 42 Z"/>
  </g>
</svg>