<svg xmlns="http://www.w3.org/2000/svg" width="64" height="64" viewBox="0 0 64 64">
  <defs>
    <linearGradient id="bg" x1="0" y1="0" x2="64" y2="64" gradientUnits="userSpaceOnUse">
      <stop stop-color="#6366f1"/>
      <stop offset="1" stop-color="#3b82f6"/>
    </linearGradient>
    <linearGradient id="sparkle" x1="44" y1="8" x2="58" y2="28" gradientUnits="userSpaceOnUse">
      <stop stop-color="#fbbf24"/>
      <stop offset="1" stop-color="#f59e0b"/>
    </linearGradient>
  </defs>
  <rect width="64" height="64" rx="14" fill="url(#bg)"/>
  <line x1="12" y1="46" x2="36" y2="46" stroke="white" stroke-opacity="0.15" stroke-width="1.5" stroke-linecap="round"/>
  <line x1="12" y1="50" x2="30" y2="50" stroke="white" stroke-opacity="0.1" stroke-width="1.5" stroke-linecap="round"/>
  <path d="M50 12 L52 18 L58 20 L52 22 L50 28 L48 22 L42 20 L48 18 Z" fill="url(#sparkle)"/>
  <circle cx="56" cy="12" r="1.5" fill="#fbbf24" opacity="0.7"/>
  <g fill="white" transform="scale(1)">
    <path d="M8 24 Q8 18 14 18 L22 18 Q28 18 28 24 L28 26 L23 26 L23 24 Q23 22 22 22 L14 22 Q13 22 13 24 L13 26 L28 38 L28 42 L8 42 L8 38 L22 38 L8 26 Z"/>
    <path d="M32 18 L37 18 L37 27 L47 18 L53 18 L43 27 L54 42 L48 42 L40 30 L37 33 L37 42 L32 42 Z"/>
  </g>
</svg>